<mxfile host="app.diagrams.net" modified="2021-06-29T08:43:48.922Z" agent="5.0 (Windows NT 10.0; Win64; x64) AppleWebKit/537.36 (KHTML, like Gecko) Chrome/91.0.4472.77 Safari/537.36" etag="9oM-16JEr9HJSKQw0olB" version="14.8.0" type="github">
  <diagram id="f4Jtv3EzpbeXqQIIySBX" name="Page-1">
    <mxGraphModel dx="1038" dy="547" grid="1" gridSize="10" guides="1" tooltips="1" connect="1" arrows="1" fold="1" page="1" pageScale="1" pageWidth="827" pageHeight="1169" math="0" shadow="0">
      <root>
        <mxCell id="0" />
        <mxCell id="1" parent="0" />
        <mxCell id="07eXpKuHjfGkqYtCzAo8-1" value="" style="rounded=0;whiteSpace=wrap;html=1;sketch=1;" vertex="1" parent="1">
          <mxGeometry x="165" y="190" width="720" height="60" as="geometry" />
        </mxCell>
        <mxCell id="07eXpKuHjfGkqYtCzAo8-2" value="Quick Sort 3 Ways" style="text;html=1;strokeColor=none;fillColor=none;align=center;verticalAlign=middle;whiteSpace=wrap;rounded=0;fontFamily=中国式手写风;fontSize=36;fontColor=#FF0000;sketch=1;" vertex="1" parent="1">
          <mxGeometry x="365" y="40" width="290" height="90" as="geometry" />
        </mxCell>
        <mxCell id="07eXpKuHjfGkqYtCzAo8-3" value="V" style="rounded=0;whiteSpace=wrap;html=1;fontFamily=中国式手写风;fontSize=36;fontColor=#FF0000;fillColor=#FF0000;sketch=1;" vertex="1" parent="1">
          <mxGeometry x="165" y="190" width="40" height="60" as="geometry" />
        </mxCell>
        <mxCell id="07eXpKuHjfGkqYtCzAo8-4" value="&amp;lt; V" style="rounded=0;whiteSpace=wrap;html=1;fontFamily=中国式手写风;fontSize=36;fontColor=#FF0000;fillColor=#FF8000;sketch=1;" vertex="1" parent="1">
          <mxGeometry x="205" y="190" width="205" height="60" as="geometry" />
        </mxCell>
        <mxCell id="07eXpKuHjfGkqYtCzAo8-5" value="== V" style="rounded=0;whiteSpace=wrap;html=1;fontFamily=中国式手写风;fontSize=36;fontColor=#FF0000;fillColor=#199C8E;sketch=1;" vertex="1" parent="1">
          <mxGeometry x="410" y="190" width="220" height="60" as="geometry" />
        </mxCell>
        <mxCell id="07eXpKuHjfGkqYtCzAo8-7" value="&amp;gt; V" style="rounded=0;whiteSpace=wrap;html=1;fontFamily=中国式手写风;fontSize=36;fontColor=#FF0000;fillColor=#7F00FF;sketch=1;" vertex="1" parent="1">
          <mxGeometry x="630" y="190" width="255" height="60" as="geometry" />
        </mxCell>
        <mxCell id="07eXpKuHjfGkqYtCzAo8-8" value="" style="triangle;whiteSpace=wrap;html=1;fontFamily=中国式手写风;fontSize=36;fontColor=#FF0000;rotation=-90;fillColor=#FF0000;sketch=1;" vertex="1" parent="1">
          <mxGeometry x="165" y="280" width="30" height="30" as="geometry" />
        </mxCell>
        <mxCell id="07eXpKuHjfGkqYtCzAo8-9" value="" style="triangle;whiteSpace=wrap;html=1;fontFamily=中国式手写风;fontSize=36;fontColor=#FF0000;rotation=-90;fillColor=#FF0000;sketch=1;" vertex="1" parent="1">
          <mxGeometry x="379" y="280" width="30" height="30" as="geometry" />
        </mxCell>
        <mxCell id="07eXpKuHjfGkqYtCzAo8-11" value="" style="triangle;whiteSpace=wrap;html=1;fontFamily=中国式手写风;fontSize=36;fontColor=#FF0000;rotation=-90;fillColor=#FF0000;sketch=1;" vertex="1" parent="1">
          <mxGeometry x="635" y="280" width="30" height="30" as="geometry" />
        </mxCell>
        <mxCell id="07eXpKuHjfGkqYtCzAo8-12" value="" style="triangle;whiteSpace=wrap;html=1;fontFamily=中国式手写风;fontSize=36;fontColor=#FF0000;rotation=-90;fillColor=#FF0000;sketch=1;" vertex="1" parent="1">
          <mxGeometry x="855" y="280" width="30" height="30" as="geometry" />
        </mxCell>
        <mxCell id="07eXpKuHjfGkqYtCzAo8-13" value="l" style="text;html=1;strokeColor=none;fillColor=none;align=center;verticalAlign=middle;whiteSpace=wrap;rounded=0;fontFamily=中国式手写风;fontSize=36;fontColor=#FF0000;sketch=1;" vertex="1" parent="1">
          <mxGeometry x="160" y="340" width="40" height="20" as="geometry" />
        </mxCell>
        <mxCell id="07eXpKuHjfGkqYtCzAo8-14" value="lt" style="text;html=1;strokeColor=none;fillColor=none;align=center;verticalAlign=middle;whiteSpace=wrap;rounded=0;fontFamily=中国式手写风;fontSize=36;fontColor=#FF0000;sketch=1;" vertex="1" parent="1">
          <mxGeometry x="374" y="340" width="40" height="20" as="geometry" />
        </mxCell>
        <mxCell id="07eXpKuHjfGkqYtCzAo8-15" value="i" style="text;html=1;strokeColor=none;fillColor=none;align=center;verticalAlign=middle;whiteSpace=wrap;rounded=0;fontFamily=中国式手写风;fontSize=36;fontColor=#FF0000;sketch=1;" vertex="1" parent="1">
          <mxGeometry x="630" y="380" width="40" height="20" as="geometry" />
        </mxCell>
        <mxCell id="07eXpKuHjfGkqYtCzAo8-16" value="gt" style="text;html=1;strokeColor=none;fillColor=none;align=center;verticalAlign=middle;whiteSpace=wrap;rounded=0;fontFamily=中国式手写风;fontSize=36;fontColor=#FF0000;sketch=1;" vertex="1" parent="1">
          <mxGeometry x="630" y="330" width="40" height="20" as="geometry" />
        </mxCell>
        <mxCell id="07eXpKuHjfGkqYtCzAo8-17" value="r" style="text;html=1;strokeColor=none;fillColor=none;align=center;verticalAlign=middle;whiteSpace=wrap;rounded=0;fontFamily=中国式手写风;fontSize=36;fontColor=#FF0000;sketch=1;" vertex="1" parent="1">
          <mxGeometry x="850" y="340" width="40" height="20" as="geometry" />
        </mxCell>
        <mxCell id="07eXpKuHjfGkqYtCzAo8-18" value="arr[l+1...lt] &amp;lt; v" style="text;html=1;strokeColor=none;fillColor=none;align=center;verticalAlign=middle;whiteSpace=wrap;rounded=0;fontFamily=中国式手写风;fontSize=30;fontColor=#FF0000;sketch=1;" vertex="1" parent="1">
          <mxGeometry x="225" y="140" width="162.5" height="50" as="geometry" />
        </mxCell>
        <mxCell id="07eXpKuHjfGkqYtCzAo8-19" value="arr[gt...r] &amp;gt; v" style="text;html=1;strokeColor=none;fillColor=none;align=center;verticalAlign=middle;whiteSpace=wrap;rounded=0;fontFamily=中国式手写风;fontSize=30;fontColor=#FF0000;sketch=1;" vertex="1" parent="1">
          <mxGeometry x="675" y="140" width="175" height="50" as="geometry" />
        </mxCell>
        <mxCell id="07eXpKuHjfGkqYtCzAo8-20" value="arr[lt+1...i-1] = v" style="text;html=1;strokeColor=none;fillColor=none;align=center;verticalAlign=middle;whiteSpace=wrap;rounded=0;fontFamily=中国式手写风;fontSize=30;fontColor=#FF0000;sketch=1;" vertex="1" parent="1">
          <mxGeometry x="420" y="140" width="190" height="50" as="geometry" />
        </mxCell>
        <mxCell id="07eXpKuHjfGkqYtCzAo8-21" value="" style="rounded=0;whiteSpace=wrap;html=1;sketch=1;" vertex="1" parent="1">
          <mxGeometry x="165" y="480" width="720" height="60" as="geometry" />
        </mxCell>
        <mxCell id="07eXpKuHjfGkqYtCzAo8-23" value="&amp;lt; V" style="rounded=0;whiteSpace=wrap;html=1;fontFamily=中国式手写风;fontSize=36;fontColor=#FF0000;fillColor=#FF8000;sketch=1;" vertex="1" parent="1">
          <mxGeometry x="165" y="480" width="215" height="60" as="geometry" />
        </mxCell>
        <mxCell id="07eXpKuHjfGkqYtCzAo8-24" value="== V" style="rounded=0;whiteSpace=wrap;html=1;fontFamily=中国式手写风;fontSize=36;fontColor=#FF0000;fillColor=#199C8E;sketch=1;" vertex="1" parent="1">
          <mxGeometry x="380" y="480" width="250" height="60" as="geometry" />
        </mxCell>
        <mxCell id="07eXpKuHjfGkqYtCzAo8-25" value="&amp;gt; V" style="rounded=0;whiteSpace=wrap;html=1;fontFamily=中国式手写风;fontSize=36;fontColor=#FF0000;fillColor=#7F00FF;sketch=1;" vertex="1" parent="1">
          <mxGeometry x="630" y="480" width="255" height="60" as="geometry" />
        </mxCell>
        <mxCell id="07eXpKuHjfGkqYtCzAo8-26" value="" style="triangle;whiteSpace=wrap;html=1;fontFamily=中国式手写风;fontSize=36;fontColor=#FF0000;rotation=-90;fillColor=#FF0000;sketch=1;" vertex="1" parent="1">
          <mxGeometry x="165" y="570" width="30" height="30" as="geometry" />
        </mxCell>
        <mxCell id="07eXpKuHjfGkqYtCzAo8-27" value="" style="triangle;whiteSpace=wrap;html=1;fontFamily=中国式手写风;fontSize=36;fontColor=#FF0000;rotation=-90;fillColor=#FF0000;sketch=1;" vertex="1" parent="1">
          <mxGeometry x="379" y="570" width="30" height="30" as="geometry" />
        </mxCell>
        <mxCell id="07eXpKuHjfGkqYtCzAo8-28" value="" style="triangle;whiteSpace=wrap;html=1;fontFamily=中国式手写风;fontSize=36;fontColor=#FF0000;rotation=-90;fillColor=#FF0000;sketch=1;" vertex="1" parent="1">
          <mxGeometry x="635" y="570" width="30" height="30" as="geometry" />
        </mxCell>
        <mxCell id="07eXpKuHjfGkqYtCzAo8-29" value="" style="triangle;whiteSpace=wrap;html=1;fontFamily=中国式手写风;fontSize=36;fontColor=#FF0000;rotation=-90;fillColor=#FF0000;sketch=1;" vertex="1" parent="1">
          <mxGeometry x="855" y="570" width="30" height="30" as="geometry" />
        </mxCell>
        <mxCell id="07eXpKuHjfGkqYtCzAo8-30" value="l" style="text;html=1;strokeColor=none;fillColor=none;align=center;verticalAlign=middle;whiteSpace=wrap;rounded=0;fontFamily=中国式手写风;fontSize=36;fontColor=#FF0000;sketch=1;" vertex="1" parent="1">
          <mxGeometry x="160" y="630" width="40" height="20" as="geometry" />
        </mxCell>
        <mxCell id="07eXpKuHjfGkqYtCzAo8-31" value="lt" style="text;html=1;strokeColor=none;fillColor=none;align=center;verticalAlign=middle;whiteSpace=wrap;rounded=0;fontFamily=中国式手写风;fontSize=36;fontColor=#FF0000;sketch=1;" vertex="1" parent="1">
          <mxGeometry x="374" y="630" width="40" height="20" as="geometry" />
        </mxCell>
        <mxCell id="07eXpKuHjfGkqYtCzAo8-33" value="gt" style="text;html=1;strokeColor=none;fillColor=none;align=center;verticalAlign=middle;whiteSpace=wrap;rounded=0;fontFamily=中国式手写风;fontSize=36;fontColor=#FF0000;sketch=1;" vertex="1" parent="1">
          <mxGeometry x="630" y="630" width="40" height="20" as="geometry" />
        </mxCell>
        <mxCell id="07eXpKuHjfGkqYtCzAo8-34" value="r" style="text;html=1;strokeColor=none;fillColor=none;align=center;verticalAlign=middle;whiteSpace=wrap;rounded=0;fontFamily=中国式手写风;fontSize=36;fontColor=#FF0000;sketch=1;" vertex="1" parent="1">
          <mxGeometry x="850" y="630" width="40" height="20" as="geometry" />
        </mxCell>
        <mxCell id="07eXpKuHjfGkqYtCzAo8-35" value="&lt;font style=&quot;font-size: 30px&quot;&gt;arr[l...lt-1] &amp;lt; v&lt;/font&gt;" style="text;html=1;strokeColor=none;fillColor=none;align=center;verticalAlign=middle;whiteSpace=wrap;rounded=0;fontFamily=中国式手写风;fontSize=24;fontColor=#FF0000;sketch=1;" vertex="1" parent="1">
          <mxGeometry x="206.5" y="430" width="172.5" height="50" as="geometry" />
        </mxCell>
        <mxCell id="07eXpKuHjfGkqYtCzAo8-36" value="&lt;font style=&quot;font-size: 30px&quot;&gt;arr[gt...r] &amp;gt; v&lt;/font&gt;" style="text;html=1;strokeColor=none;fillColor=none;align=center;verticalAlign=middle;whiteSpace=wrap;rounded=0;fontFamily=中国式手写风;fontSize=24;fontColor=#FF0000;sketch=1;" vertex="1" parent="1">
          <mxGeometry x="665" y="430" width="192.5" height="50" as="geometry" />
        </mxCell>
        <mxCell id="07eXpKuHjfGkqYtCzAo8-37" value="&lt;font style=&quot;font-size: 30px&quot;&gt;arr[lt...gt-1] = v&lt;/font&gt;" style="text;html=1;strokeColor=none;fillColor=none;align=center;verticalAlign=middle;whiteSpace=wrap;rounded=0;fontFamily=中国式手写风;fontSize=24;fontColor=#FF0000;sketch=1;" vertex="1" parent="1">
          <mxGeometry x="416.25" y="430" width="187.5" height="50" as="geometry" />
        </mxCell>
        <mxCell id="07eXpKuHjfGkqYtCzAo8-39" value="" style="endArrow=classic;html=1;fontSize=30;curved=1;strokeColor=#FF0000;sketch=1;" edge="1" parent="1">
          <mxGeometry width="50" height="50" relative="1" as="geometry">
            <mxPoint x="140" y="230" as="sourcePoint" />
            <mxPoint x="140" y="520" as="targetPoint" />
            <Array as="points">
              <mxPoint x="90" y="260" />
              <mxPoint x="50" y="420" />
              <mxPoint x="80" y="500" />
            </Array>
          </mxGeometry>
        </mxCell>
        <mxCell id="07eXpKuHjfGkqYtCzAo8-42" value="交换l和lt位置的元素，维护下标后最终位置" style="text;html=1;strokeColor=none;fillColor=none;align=center;verticalAlign=middle;whiteSpace=wrap;rounded=0;fontFamily=中国式手写风;fontSize=24;fontColor=#FF0000;sketch=1;" vertex="1" parent="1">
          <mxGeometry x="42.75" y="375" width="500" height="50" as="geometry" />
        </mxCell>
      </root>
    </mxGraphModel>
  </diagram>
</mxfile>
